<svg width="129" height="60" viewBox="0 0 129 60" fill="none" xmlns="http://www.w3.org/2000/svg">
<path d="M8.384 13.624H19.168L18.368 17.656H7.584L8.384 13.624ZM6.912 22.84H19.136L18.272 27H0.928L5.408 4.6H22.336L21.472 8.76H9.728L6.912 22.84ZM26.5925 27L22.7845 9.784H27.7125L30.8805 24.6H28.3205L37.4405 9.784H42.4325L31.7445 27H26.5925ZM49.7288 27.256C47.9368 27.256 46.3794 26.936 45.0568 26.296C43.7554 25.656 42.7421 24.76 42.0168 23.608C41.2914 22.456 40.9288 21.1013 40.9288 19.544C40.9288 17.624 41.3554 15.9173 42.2088 14.424C43.0834 12.9093 44.2781 11.7147 45.7928 10.84C47.3288 9.96533 49.0888 9.528 51.0728 9.528C52.7581 9.528 54.2088 9.848 55.4248 10.488C56.6408 11.1067 57.5794 11.9813 58.2408 13.112C58.9234 14.2213 59.2648 15.5547 59.2648 17.112C59.2648 17.56 59.2328 18.008 59.1688 18.456C59.1261 18.904 59.0621 19.3307 58.9768 19.736H44.7368L45.2488 16.824H56.6408L54.5928 17.72C54.7634 16.76 54.7101 15.96 54.4328 15.32C54.1554 14.6587 53.7074 14.1573 53.0888 13.816C52.4701 13.4533 51.7234 13.272 50.8488 13.272C49.7608 13.272 48.8328 13.5387 48.0648 14.072C47.3181 14.584 46.7528 15.2987 46.3688 16.216C45.9848 17.1333 45.7928 18.168 45.7928 19.32C45.7928 20.6427 46.1554 21.6347 46.8808 22.296C47.6274 22.936 48.7474 23.256 50.2408 23.256C51.1154 23.256 51.9581 23.1173 52.7688 22.84C53.5794 22.5627 54.2728 22.168 54.8488 21.656L56.9288 24.952C55.9261 25.7413 54.7954 26.328 53.5368 26.712C52.2994 27.0747 51.0301 27.256 49.7288 27.256ZM60.6705 27L64.0945 9.784H68.8305L67.8385 14.68L67.3905 13.272C68.1585 11.8853 69.1612 10.9147 70.3985 10.36C71.6358 9.80533 73.1185 9.528 74.8465 9.528L73.9505 14.136C73.7372 14.1147 73.5345 14.104 73.3425 14.104C73.1718 14.0827 72.9905 14.072 72.7985 14.072C71.3265 14.072 70.1212 14.4347 69.1825 15.16C68.2652 15.8853 67.6465 17.0587 67.3265 18.68L65.6625 27H60.6705ZM76.1045 33.464C75.2298 33.464 74.3658 33.3253 73.5125 33.048C72.6378 32.7707 71.9445 32.408 71.4325 31.96L73.7365 28.376C74.0992 28.696 74.5045 28.952 74.9525 29.144C75.4218 29.336 75.9338 29.432 76.4885 29.432C77.1285 29.432 77.6832 29.272 78.1525 28.952C78.6432 28.632 79.1232 28.088 79.5925 27.32L80.9685 25.144L81.4165 24.632L90.5045 9.784H95.4325L83.9765 28.152C83.1232 29.496 82.3018 30.552 81.5125 31.32C80.7445 32.1093 79.9232 32.664 79.0485 32.984C78.1952 33.304 77.2138 33.464 76.1045 33.464ZM79.9125 27.672L75.7845 9.784H80.7765L83.9125 24.184L79.9125 27.672Z" fill="#F5F6FA"/>
<path d="M12.2835 30.3408H19.6536V58.0226H12.2835V30.3408Z" fill="#5D36B4"/>
<path d="M0 34.2954H7.37008V58.0227H0V34.2954Z" fill="#FED330"/>
<path d="M29.8906 34.2954L22.9529 35.6876L29.8719 58.0227L36.8096 56.6305L29.8906 34.2954Z" fill="#E0562A"/>
<path d="M40.6441 56.5454L45.1241 34.1454H54.2441C57.0387 34.1454 59.1934 34.7534 60.7081 35.9694C62.2441 37.1854 63.0121 38.8921 63.0121 41.0894C63.0121 42.9667 62.5641 44.5987 61.6681 45.9854C60.7934 47.3507 59.5347 48.4067 57.8921 49.1534C56.2707 49.9001 54.3507 50.2734 52.1321 50.2734H44.8361L47.5561 48.0014L45.8601 56.5454H40.6441ZM55.0441 56.5454L50.4681 48.4174H55.9081L60.5161 56.5454H55.0441ZM47.4281 48.6094L45.6361 46.1454H52.3241C54.0521 46.1454 55.3854 45.7614 56.3241 44.9934C57.2841 44.2041 57.7641 43.0627 57.7641 41.5694C57.7641 40.4814 57.3907 39.6814 56.6441 39.1694C55.9187 38.6361 54.8947 38.3694 53.5721 38.3694H47.2681L49.9881 35.8414L47.4281 48.6094ZM73.0073 56.8014C71.2153 56.8014 69.658 56.4814 68.3353 55.8414C67.034 55.2014 66.0206 54.3054 65.2953 53.1534C64.57 52.0014 64.2073 50.6467 64.2073 49.0894C64.2073 47.1694 64.634 45.4627 65.4873 43.9694C66.362 42.4547 67.5566 41.2601 69.0713 40.3854C70.6073 39.5107 72.3673 39.0734 74.3513 39.0734C76.0366 39.0734 77.4873 39.3934 78.7033 40.0334C79.9193 40.6521 80.858 41.5267 81.5193 42.6574C82.202 43.7667 82.5433 45.1001 82.5433 46.6574C82.5433 47.1054 82.5113 47.5534 82.4473 48.0014C82.4046 48.4494 82.3406 48.8761 82.2553 49.2814H68.0153L68.5273 46.3694H79.9193L77.8713 47.2654C78.042 46.3054 77.9886 45.5054 77.7113 44.8654C77.434 44.2041 76.986 43.7027 76.3673 43.3614C75.7486 42.9987 75.002 42.8174 74.1273 42.8174C73.0393 42.8174 72.1113 43.0841 71.3433 43.6174C70.5966 44.1294 70.0313 44.8441 69.6473 45.7614C69.2633 46.6787 69.0713 47.7134 69.0713 48.8654C69.0713 50.1881 69.434 51.1801 70.1593 51.8414C70.906 52.4814 72.026 52.8014 73.5193 52.8014C74.394 52.8014 75.2366 52.6627 76.0473 52.3854C76.858 52.1081 77.5513 51.7134 78.1273 51.2014L80.2073 54.4974C79.2046 55.2867 78.074 55.8734 76.8153 56.2574C75.578 56.6201 74.3086 56.8014 73.0073 56.8014ZM91.7251 56.8014C90.4024 56.8014 89.1757 56.5027 88.0451 55.9054C86.9144 55.2867 86.0077 54.4014 85.3251 53.2494C84.6424 52.0974 84.3011 50.7107 84.3011 49.0894C84.3011 47.6387 84.5357 46.3054 85.0051 45.0894C85.4957 43.8734 86.1784 42.8174 87.0531 41.9214C87.9277 41.0254 88.9411 40.3321 90.0931 39.8414C91.2451 39.3294 92.4824 39.0734 93.8051 39.0734C95.2344 39.0734 96.4611 39.3401 97.4851 39.8734C98.5091 40.4067 99.2664 41.2387 99.7571 42.3694C100.269 43.4787 100.45 44.9187 100.301 46.6894C100.194 48.7161 99.7784 50.4974 99.0531 52.0334C98.3277 53.5481 97.3464 54.7214 96.1091 55.5534C94.8931 56.3854 93.4317 56.8014 91.7251 56.8014ZM93.2611 52.6734C94.2424 52.6734 95.1064 52.4387 95.8531 51.9694C96.6211 51.4787 97.2184 50.8174 97.6451 49.9854C98.0931 49.1321 98.3171 48.1401 98.3171 47.0094C98.3171 45.8361 97.9651 44.9081 97.2611 44.2254C96.5784 43.5427 95.6184 43.2014 94.3811 43.2014C93.4211 43.2014 92.5571 43.4467 91.7891 43.9374C91.0211 44.4067 90.4131 45.0681 89.9651 45.9214C89.5384 46.7534 89.3251 47.7347 89.3251 48.8654C89.3251 50.0387 89.6664 50.9667 90.3491 51.6494C91.0531 52.3321 92.0237 52.6734 93.2611 52.6734ZM96.6851 56.5454L97.3571 53.1214L98.4771 48.0014L99.1491 42.8814L99.8531 39.3294H104.845L101.421 56.5454H96.6851ZM113.883 56.8014C112.56 56.8014 111.333 56.5027 110.203 55.9054C109.072 55.2867 108.165 54.4014 107.483 53.2494C106.8 52.0974 106.459 50.7107 106.459 49.0894C106.459 47.6387 106.693 46.3054 107.163 45.0894C107.653 43.8734 108.336 42.8174 109.211 41.9214C110.085 41.0254 111.099 40.3321 112.251 39.8414C113.403 39.3294 114.64 39.0734 115.963 39.0734C117.307 39.0734 118.469 39.3081 119.451 39.7774C120.432 40.2467 121.189 40.9721 121.723 41.9534C122.277 42.9134 122.555 44.1294 122.555 45.6014C122.555 47.1801 122.363 48.6521 121.979 50.0174C121.616 51.3614 121.061 52.5454 120.315 53.5694C119.568 54.5721 118.651 55.3614 117.563 55.9374C116.496 56.5134 115.269 56.8014 113.883 56.8014ZM115.419 52.6734C116.4 52.6734 117.264 52.4387 118.011 51.9694C118.779 51.4787 119.376 50.8174 119.803 49.9854C120.251 49.1321 120.475 48.1401 120.475 47.0094C120.475 45.8361 120.123 44.9081 119.419 44.2254C118.736 43.5427 117.776 43.2014 116.539 43.2014C115.579 43.2014 114.715 43.4467 113.947 43.9374C113.179 44.4067 112.571 45.0681 112.123 45.9214C111.696 46.7534 111.483 47.7347 111.483 48.8654C111.483 50.0387 111.824 50.9667 112.507 51.6494C113.211 52.3321 114.181 52.6734 115.419 52.6734ZM118.811 56.5454L119.515 53.1214L120.603 48.0014L121.275 42.8814L123.291 32.8014H128.283L123.547 56.5454H118.811Z" fill="white"/>
</svg>
